# xmcd CD database file
#
# Track frame offsets:
#	150
#	17708
#	37269
#	59524
#	75719
#	97622
#	137575
#	153382
#	169977
#	194208
#	208801
#	225296
#	248845
#
# Disc length: 3987 seconds
#
# Revision: 0
# Processed by: cddbd v1.5.2PL0 Copyright (c) Steve Scherf et al.
# Submitted via: CDex 1.70beta2
#
DISCID=ae0f910d
DTITLE=Buck Clayton Earl Hines All Stars - Jazz From A Swinging Era, CD 2
DYEAR=1967
DGENRE=Jazz
TTITLE0=01 -If I Had You
TTITLE1=02 -Indiana
TTITLE2=03 -This is Always
TTITLE3=04 -Lester Leaps In
TTITLE4=05 -Night Cap
TTITLE5=06 -Into The Blues Bag
TTITLE6=07 -Tres Chaud
TTITLE7=08 -Swingin' The Blues
TTITLE8=09 -Swingville
TTITLE9=10 -Buck's Blues
TTITLE10=11 -Body and Soul
TTITLE11=12 -Indiana
TTITLE12=13 -St. Louis Blues
EXTD=YEAR: 1967
EXTT0=
EXTT1=
EXTT2=
EXTT3=
EXTT4=
EXTT5=
EXTT6=
EXTT7=
EXTT8=
EXTT9=
EXTT10=
EXTT11=
EXTT12=
PLAYORDER=
